<svg xmlns="http://www.w3.org/2000/svg" width="34.671" height="30.337" viewBox="0 0 34.671 30.337">
  <path id="Icon_awesome-bars" data-name="Icon awesome-bars" d="M1.238,9.791H33.432a1.238,1.238,0,0,0,1.238-1.238v-3.1a1.238,1.238,0,0,0-1.238-1.238H1.238A1.238,1.238,0,0,0,0,5.457v3.1A1.238,1.238,0,0,0,1.238,9.791Zm0,12.382H33.432a1.238,1.238,0,0,0,1.238-1.238v-3.1A1.238,1.238,0,0,0,33.432,16.6H1.238A1.238,1.238,0,0,0,0,17.839v3.1A1.238,1.238,0,0,0,1.238,22.173Zm0,12.382H33.432a1.238,1.238,0,0,0,1.238-1.238v-3.1a1.238,1.238,0,0,0-1.238-1.238H1.238A1.238,1.238,0,0,0,0,30.222v3.1A1.238,1.238,0,0,0,1.238,34.556Z" transform="translate(0 -4.219)" fill="#edeff1"/>
</svg>
